<svg xmlns="http://www.w3.org/2000/svg" viewBox="0 0 512 512"><g fill="#00a0e9"><path d="M369.069 70.05c66.975 39.657 108.008 111.51 107.982 189.087 0 121.531-98.99 220.053-221.057 220.053S35.009 380.668 35.009 259.137c-.053-76.762 40.107-147.995 105.954-187.936L125.03 44.77C49.84 90.274 3.957 171.542 4 259.138 4 397.682 116.824 510 255.994 510 395.164 510 508 397.682 508 259.137 508.037 171 461.582 89.317 385.646 44L369.07 70.05z"/><path d="M349 2c-23.196 0-42 18.804-42 42s18.804 42 42 42 42-18.804 42-42-18.804-42-42-42zm0 66.303A24.315 24.315 0 11373.315 44 24.291 24.291 0 01349 68.303zm0-13.248c6.105 0 11.055-4.95 11.055-11.055 0-6.105-4.95-11.055-11.055-11.055-6.105 0-11.055 4.95-11.055 11.055 0 6.105 4.95 11.055 11.055 11.055zM165 2c-23.196 0-42 18.804-42 42s18.804 42 42 42 42-18.804 42-42a41.988 41.988 0 00-42-42zm0 66.303A24.315 24.315 0 11189.315 44 24.303 24.303 0 01165 68.303zm0-13.248c6.105 0 11.055-4.95 11.055-11.055 0-6.105-4.95-11.055-11.055-11.055-6.105 0-11.055 4.95-11.055 11.055 0 6.105 4.95 11.055 11.055 11.055z"/></g><g fill="#8fc41e"><path d="M343 313.902L274.285 243 256 262.34 324.48 333z"/><path d="M276 244.835l-.012.012.012-.012L257.974 227 169 315.082 188.108 334l68.991-69.994z"/><path d="M222.356 315v70.086a10.27 10.27 0 002.94 7.206 9.962 9.962 0 007.098 2.985h50.2c5.546 0 10.043-4.56 10.05-10.191V315L319 337.295v66.862c0 4.732-1.852 9.27-5.148 12.617A17.442 17.442 0 01301.425 422h-87.862c-9.702-.007-17.563-7.993-17.563-17.843v-66.898L222.356 315zm70.347-107v-56.316c0-5.59-4.494-10.121-10.038-10.121h-50.271c-5.544 0-10.038 4.531-10.038 10.12V208H196v-75.28c0-9.782 7.861-17.713 17.563-17.72h87.862c9.706 0 17.575 7.934 17.575 17.72V208h-26.297zm100.733 0H323v26.37h51.565a10.045 10.045 0 017.115 2.93 10.005 10.005 0 012.944 7.097v50.217c0 5.546-4.502 10.044-10.06 10.05h-38.382l7.743 7.717L325.221 331h68.215c9.701-.02 17.557-7.87 17.564-17.553v-87.87c.007-9.692-7.853-17.557-17.564-17.577zm-216.6 96.665h-38.373c-5.559 0-10.065-4.5-10.065-10.05v-50.206c0-5.544 4.5-10.038 10.053-10.038H190V208h-70.398c-9.721 0-17.602 7.87-17.602 17.577v87.87c.013 9.698 7.89 17.553 17.602 17.553h68.167l-18.66-18.643 7.728-7.692z"/></g></svg>